POSTER: 
http://imgh.us/thalsamayam_oru_penkutty_wallpapers00-4.jpg

Format : MPEG-4
Format profile : Base Media / Version 2
Codec ID : mp42
File size : 448 MiB
Duration : 2h 3mn
Overall bit rate mode : Variable
Overall bit rate : 507 Kbps
Encoded date : UTC 2012-06-14 02:40:49
Tagged date : UTC 2012-06-14 02:40:49
gsst : 0
gstd : 7422071
gssd : B4A7DDAE6MH1339729841572378
gshh :

Video
ID : 1
Format : AVC
Format/Info : Advanced Video Codec
Format profile : Baseline@L2.1
Format settings, CABAC : No
Format settings, ReFrames : 1 frame
Codec ID : avc1
Codec ID/Info : Advanced Video Coding
Duration : 2h 3mn
Bit rate : 408 Kbps
Maximum bit rate : 1 377 Kbps
Width : 640 pixels
Height : 280 pixels
Display aspect ratio : 2.25:1
Frame rate mode : Constant
Frame rate : 23.976 fps
Color space : YUV
Chroma subsampling : 4:2:0
Bit depth : 8 bits
Scan type : Progressive
Bits/(Pixel*Frame) : 0.095
Stream size : 361 MiB (81%)
Tagged date : UTC 2012-06-14 02:40:54

Audio
ID : 2
Format : AAC
Format/Info : Advanced Audio Codec
Format profile : LC
Codec ID : 40
Duration : 2h 3mn
Bit rate mode : Variable
Bit rate : 96.0 Kbps
Maximum bit rate : 171 Kbps
Channel(s) : 2 channels
Channel positions : Front: L R
Sampling rate : 44.1 KHz
Compression mode : Lossy
Stream size : 84.9 MiB (19%)
Title : IsoMedia File Produced by Google, 5-11-2011
Encoded date : UTC 2012-06-14 02:40:51
Tagged date : UTC 2012-06-14 02:40:54

SCREENS: 
http://kastatic.com/i2/u/1875267/4zITRLecNY.png 
http://kastatic.com/i2/u/1875267/Pn48MQfqNU.png 
http://kastatic.com/i2/u/1875267/dJQnw9jszt.png 
http://kastatic.com/i2/u/1875267/Qsdq1LjFuH.png 
http://kastatic.com/i2/u/1875267/SMI04CDx56.png 
http://kastatic.com/i2/u/1875267/RkZA3WxXCe.png 
http://kastatic.com/i2/u/1875267/QHPMIxuvR8.png